<?xml version="1.0" encoding="UTF-8" standalone="no"?>
<!DOCTYPE svg PUBLIC "-//W3C//DTD SVG 1.1//EN" "http://www.w3.org/Graphics/SVG/1.1/DTD/svg11.dtd">
<svg version="1.1" xmlns="http://www.w3.org/2000/svg" xmlns:xlink="http://www.w3.org/1999/xlink" preserveAspectRatio="xMidYMid meet" viewBox="0 0 640 640" width="640" height="640"><defs><path d="M640 0C640 0 640 0 640 0C640 384 640 597.33 640 640C640 640 640 640 640 640C256 640 42.66 640 0 640C0 640 0 640 0 640C0 256 0 42.67 0 0C0 0 0 0 0 0C384 0 597.33 0 640 0Z" id="a1REx8zJ3w"/><path d="M541.34 109.88L541.99 109.94L542.64 110.03L543.29 110.15L543.93 110.29L544.56 110.45L545.19 110.63L545.81 110.84L546.43 111.06L547.03 111.31L547.63 111.59L548.21 111.88L548.79 112.19L549.36 112.53L549.91 112.89L550.45 113.27L550.98 113.67L551.5 114.09L552 114.53L552.49 114.99L552.96 115.47L553.41 115.96L553.85 116.48L554.27 117.02L554.67 117.58L555.06 118.16L555.42 118.75L609.68 212.81L610.03 213.43L610.34 214.05L610.63 214.69L610.89 215.33L611.13 215.97L611.34 216.62L611.52 217.28L611.68 217.94L611.82 218.6L611.93 219.26L612.01 219.93L612.07 220.59L612.1 221.26L612.11 221.93L612.1 222.59L612.06 223.25L611.99 223.91L611.91 224.57L611.79 225.22L611.66 225.87L611.5 226.52L611.32 227.15L611.11 227.78L610.88 228.41L610.63 229.02L610.36 229.63L610.06 230.22L609.74 230.81L609.4 231.38L609.04 231.95L608.65 232.5L608.25 233.04L607.82 233.56L607.37 234.07L606.89 234.57L606.4 235.05L605.89 235.51L605.35 235.96L604.8 236.38L604.22 236.79L475.56 324.46L478.45 327.71L481.55 331.47L484.5 335.34L487.31 339.32L489.96 343.42L492.46 347.62L494.8 351.93L496.98 356.33L498.98 360.83L500.82 365.42L502.48 370.09L503.96 374.85L505.25 379.69L506.36 384.6L507.28 389.58L508 394.62L508.51 399.73L508.83 404.9L508.93 410.11L508.83 415.33L508.51 420.5L508 425.61L507.28 430.65L506.36 435.63L505.25 440.54L503.96 445.38L502.48 450.14L500.82 454.81L498.98 459.4L496.98 463.9L494.8 468.3L492.46 472.61L489.96 476.81L487.31 480.91L484.5 484.89L481.55 488.76L478.45 492.52L475.22 496.15L471.85 499.65L468.35 503.02L464.72 506.25L460.97 509.35L457.09 512.3L453.11 515.11L449.01 517.76L444.81 520.26L440.5 522.6L436.1 524.77L431.6 526.78L427.01 528.62L422.34 530.28L417.58 531.76L412.74 533.05L407.83 534.16L402.85 535.08L397.81 535.79L392.7 536.31L387.54 536.63L382.32 536.73L377.1 536.63L371.93 536.31L366.82 535.79L361.78 535.08L356.8 534.16L351.89 533.05L347.05 531.76L342.3 530.28L337.62 528.62L333.03 526.78L328.53 524.77L324.13 522.6L319.82 520.26L315.62 517.76L311.52 515.11L307.54 512.3L303.67 509.35L299.91 506.25L296.29 503.02L292.78 499.65L289.41 496.15L286.18 492.52L283.08 488.76L280.13 484.89L277.32 480.91L274.67 476.81L272.17 472.61L269.83 468.3L268.47 465.55L244.56 481.85L243.19 482.75L241.81 483.63L240.43 484.48L239.03 485.32L237.62 486.13L236.2 486.92L234.77 487.69L233.32 488.44L231.87 489.17L230.41 489.87L228.94 490.56L227.46 491.22L225.97 491.86L224.48 492.48L222.97 493.07L221.46 493.65L219.94 494.2L218.41 494.73L216.87 495.23L215.33 495.72L213.78 496.18L212.22 496.62L210.66 497.03L209.09 497.42L207.51 497.8L205.93 498.14L204.35 498.47L202.76 498.77L201.16 499.05L199.56 499.3L197.95 499.53L196.34 499.74L194.73 499.93L193.11 500.09L191.49 500.23L189.87 500.34L188.24 500.43L186.61 500.5L184.98 500.54L183.35 500.56L178.87 500.47L174.44 500.2L170.07 499.76L165.74 499.14L161.47 498.36L157.26 497.41L153.12 496.3L149.04 495.04L145.03 493.61L141.1 492.04L137.24 490.32L133.47 488.46L130.87 487.05L119.53 493.61L118.92 493.95L118.31 494.29L117.69 494.62L117.07 494.94L116.44 495.25L115.82 495.55L115.18 495.84L114.55 496.13L113.91 496.4L113.27 496.67L112.62 496.93L111.97 497.18L111.32 497.42L110.67 497.65L110.01 497.88L109.35 498.09L108.69 498.3L108.02 498.49L107.35 498.68L106.68 498.86L106.01 499.03L105.33 499.2L104.66 499.35L103.98 499.49L103.3 499.63L102.61 499.75L101.93 499.87L101.24 499.98L100.55 500.08L99.86 500.17L99.17 500.25L98.48 500.32L97.79 500.38L97.09 500.43L96.4 500.48L95.7 500.51L95 500.54L94.3 500.55L93.6 500.56L92.9 500.56L90.67 500.51L88.45 500.37L86.27 500.15L84.1 499.84L81.97 499.44L79.87 498.96L77.79 498.41L75.76 497.77L73.75 497.06L71.79 496.27L69.86 495.4L67.97 494.47L66.13 493.46L64.33 492.39L62.58 491.25L60.87 490.05L59.21 488.78L57.61 487.45L56.05 486.06L54.55 484.62L53.11 483.11L51.73 481.56L50.4 479.95L49.14 478.29L47.94 476.58L46.8 474.82L45.73 473.02L44.73 471.17L43.8 469.28L42.94 467.35L42.16 465.39L41.45 463.38L40.82 461.34L40.27 459.27L39.8 457.16L39.41 455.03L39.1 452.87L38.88 450.68L38.75 448.46L38.71 446.23L38.73 444.76L38.79 443.31L38.89 441.86L39.02 440.42L39.2 438.98L39.41 437.56L39.66 436.14L39.95 434.74L40.27 433.34L40.63 431.96L41.03 430.59L41.46 429.23L41.92 427.89L42.42 426.56L42.95 425.24L43.52 423.94L44.12 422.66L44.76 421.39L45.42 420.14L46.12 418.91L46.85 417.7L47.61 416.5L48.4 415.33L49.23 414.18L50.08 413.04L50.97 411.93L51.88 410.85L52.82 409.78L53.79 408.74L54.79 407.72L55.82 406.73L56.88 405.77L57.96 404.83L59.07 403.92L60.21 403.03L61.37 402.17L62.56 401.35L63.78 400.55L65.02 399.78L66.28 399.04L74.82 394.2L74.78 392.07L74.82 388.9L74.96 385.74L75.19 382.61L75.5 379.49L75.91 376.4L76.4 373.33L76.97 370.28L77.64 367.25L78.39 364.26L79.22 361.29L80.13 358.35L81.12 355.45L82.2 352.58L83.35 349.74L84.58 346.94L85.89 344.18L87.28 341.46L88.74 338.78L90.27 336.14L91.88 333.55L93.56 331L95.31 328.5L97.13 326.05L99.02 323.65L100.98 321.31L103.01 319.01L105.1 316.78L107.25 314.6L109.47 312.48L111.76 310.42L114.1 308.42L116.51 306.48L118.98 304.61L121.5 302.81L124.09 301.08L126.73 299.41L129.42 297.82L132.17 296.3L134.98 294.85L137.84 293.48L185.65 271.42L180.56 262.26L179.35 260.15L178.07 258.09L176.73 256.11L175.31 254.19L173.84 252.33L172.3 250.54L170.7 248.82L169.05 247.17L167.34 245.59L165.58 244.08L163.77 242.64L161.92 241.27L160.02 239.98L158.07 238.75L156.09 237.6L154.06 236.53L152.01 235.53L149.91 234.61L147.79 233.77L145.64 233L143.46 232.32L141.26 231.71L139.04 231.18L136.79 230.74L134.53 230.37L132.26 230.09L129.97 229.89L127.67 229.78L125.37 229.75L123.05 229.81L120.74 229.95L118.42 230.18L116.11 230.5L113.8 230.91L111.49 231.41L109.2 232L106.91 232.68L104.64 233.45L102.38 234.32L100.14 235.27L99.43 235.51L98.72 235.72L98.01 235.9L97.3 236.04L96.59 236.16L95.87 236.25L95.16 236.31L94.45 236.34L93.74 236.34L93.03 236.32L92.33 236.26L91.63 236.18L90.94 236.08L90.26 235.94L89.58 235.78L88.91 235.6L88.24 235.39L87.59 235.15L86.95 234.89L86.31 234.61L85.69 234.3L85.08 233.97L84.48 233.61L83.9 233.24L83.33 232.84L82.77 232.41L82.24 231.97L81.71 231.5L81.21 231.02L80.72 230.51L80.25 229.98L79.8 229.43L79.38 228.86L78.97 228.27L78.58 227.67L78.22 227.04L77.88 226.4L77.56 225.74L77.27 225.06L77 224.36L76.79 223.72L76.6 223.08L76.43 222.43L76.29 221.78L76.17 221.14L76.08 220.49L76.01 219.84L75.96 219.19L75.94 218.54L75.94 217.9L75.97 217.25L76.01 216.61L76.08 215.97L76.17 215.34L76.29 214.71L76.43 214.09L76.58 213.47L76.76 212.86L76.96 212.26L77.18 211.66L77.43 211.07L77.69 210.49L77.97 209.92L78.28 209.36L78.6 208.81L78.94 208.27L79.3 207.74L79.68 207.23L80.08 206.73L80.5 206.24L80.94 205.76L81.4 205.3L81.87 204.86L82.36 204.43L82.87 204.01L83.4 203.62L83.94 203.24L84.5 202.87L85.08 202.53L85.67 202.21L89.2 200.71L92.75 199.35L96.33 198.14L99.93 197.07L103.54 196.15L107.17 195.37L110.81 194.73L114.45 194.23L118.1 193.87L121.74 193.65L125.38 193.56L129.01 193.61L132.63 193.79L136.23 194.1L139.81 194.54L143.37 195.12L146.9 195.82L150.4 196.65L153.87 197.61L157.29 198.69L160.68 199.9L164.02 201.22L167.31 202.67L170.55 204.24L173.74 205.93L176.86 207.74L179.92 209.66L182.92 211.7L185.84 213.86L188.69 216.12L191.46 218.5L194.15 220.99L196.75 223.58L199.27 226.29L201.69 229.1L204.02 232.02L206.24 235.04L208.37 238.16L210.38 241.39L212.29 244.72L218.67 256.18L532.16 111.51L532.8 111.23L533.44 110.97L534.09 110.74L534.74 110.54L535.39 110.36L536.05 110.21L536.71 110.08L537.37 109.98L538.04 109.9L538.7 109.84L539.36 109.82L540.02 109.81L540.68 109.83L541.34 109.88ZM374.9 319.97L371.25 320.34L367.65 320.86L364.09 321.51L360.58 322.3L357.13 323.23L353.73 324.28L350.39 325.47L347.11 326.78L343.9 328.22L340.75 329.77L337.68 331.44L334.68 333.22L331.75 335.12L328.9 337.12L326.14 339.23L323.46 341.44L320.87 343.76L318.36 346.16L315.96 348.66L313.65 351.26L311.43 353.94L309.33 356.7L307.32 359.55L305.43 362.47L303.64 365.48L301.97 368.55L300.42 371.7L298.98 374.91L297.67 378.19L296.49 381.53L295.43 384.93L294.5 388.38L293.71 391.89L293.06 395.44L292.55 399.05L292.17 402.7L291.95 406.39L291.88 410.11L291.95 413.84L292.17 417.53L292.55 421.18L293.06 424.78L293.71 428.34L293.83 428.85L294.02 429.22L294.33 429.87L294.61 430.53L294.87 431.2L295.1 431.87L295.29 432.55L295.47 433.24L295.61 433.93L295.73 434.62L295.82 435.31L295.88 436.01L295.91 436.71L295.92 436.87L296.49 438.7L297.67 442.04L298.98 445.32L300.42 448.53L301.97 451.68L303.64 454.75L305.43 457.76L307.32 460.68L309.33 463.53L311.43 466.29L313.65 468.97L315.96 471.57L318.36 474.07L320.87 476.47L323.46 478.79L326.14 481L328.9 483.11L331.75 485.11L334.68 487.01L337.68 488.79L340.75 490.46L343.9 492.01L347.11 493.45L350.39 494.76L353.73 495.95L357.13 497L360.58 497.93L364.09 498.72L367.65 499.37L371.25 499.89L374.9 500.26L378.59 500.48L382.32 500.56L386.04 500.48L389.73 500.26L393.38 499.89L396.99 499.37L400.54 498.72L404.05 497.93L407.5 497L410.9 495.95L414.24 494.76L417.52 493.45L420.73 492.01L423.88 490.46L426.95 488.79L429.96 487.01L432.88 485.11L435.73 483.11L438.49 481L441.17 478.79L443.77 476.47L446.27 474.07L448.68 471.57L450.99 468.97L453.2 466.29L455.31 463.53L457.31 460.68L459.21 457.76L460.99 454.75L462.66 451.68L464.22 448.53L465.65 445.32L466.96 442.04L468.15 438.7L469.2 435.3L470.13 431.85L470.92 428.34L471.57 424.78L472.09 421.18L472.46 417.53L472.68 413.84L472.76 410.11L472.68 406.39L472.46 402.7L472.09 399.05L471.57 395.44L470.92 391.89L470.13 388.38L469.2 384.93L468.15 381.53L466.96 378.19L465.65 374.91L464.22 371.7L462.66 368.55L460.99 365.48L459.21 362.47L457.31 359.55L455.31 356.7L453.2 353.94L450.99 351.26L448.68 348.66L446.27 346.16L443.77 343.76L441.17 341.44L438.49 339.23L435.73 337.12L432.88 335.12L429.96 333.22L426.95 331.44L423.88 329.77L420.73 328.22L417.52 326.78L414.24 325.47L410.9 324.28L407.5 323.23L404.05 322.3L400.54 321.51L396.99 320.86L393.38 320.34L389.73 319.97L386.04 319.75L382.32 319.67L378.59 319.75L374.9 319.97ZM150.28 327.67L147.67 329.08L145.15 330.57L142.71 332.16L140.34 333.83L138.06 335.58L135.87 337.41L133.75 339.32L131.73 341.3L129.79 343.36L127.94 345.48L126.18 347.66L124.5 349.91L122.92 352.21L121.44 354.57L120.04 356.98L118.75 359.44L117.54 361.95L116.44 364.5L115.43 367.09L114.52 369.71L113.72 372.37L113.01 375.06L112.41 377.78L111.91 380.52L111.52 383.28L111.23 386.06L111.05 388.85L110.98 391.66L111.02 394.47L111.17 397.29L111.43 400.12L111.81 402.94L112.29 405.76L112.9 408.57L113.62 411.37L114.46 414.16L115.41 416.93L116.49 419.69L117.69 422.42L118.6 424.32L119.57 426.19L120.58 428.02L121.64 429.81L122.75 431.57L123.91 433.29L125.11 434.97L126.36 436.61L127.65 438.21L128.98 439.77L130.35 441.29L131.77 442.76L133.22 444.2L134.71 445.59L136.23 446.94L137.8 448.24L139.39 449.5L141.03 450.71L142.69 451.87L144.39 452.99L146.11 454.06L147.87 455.08L149.65 456.06L151.47 456.98L153.31 457.85L155.17 458.67L157.06 459.44L158.97 460.15L160.9 460.81L162.86 461.42L164.83 461.97L166.83 462.47L168.84 462.91L170.87 463.3L172.92 463.63L174.98 463.9L177.05 464.11L179.14 464.26L181.24 464.35L183.35 464.38L184.44 464.37L185.54 464.34L186.63 464.3L187.73 464.24L188.82 464.17L189.91 464.07L190.99 463.97L192.08 463.84L193.16 463.7L194.24 463.55L195.31 463.38L196.38 463.19L197.45 462.99L198.52 462.77L199.58 462.54L200.64 462.29L201.69 462.03L202.74 461.75L203.79 461.45L204.83 461.14L205.87 460.81L206.9 460.47L207.92 460.12L208.95 459.75L209.96 459.36L210.97 458.96L211.98 458.54L212.98 458.11L213.97 457.66L214.96 457.2L215.94 456.73L216.91 456.24L217.88 455.73L218.84 455.21L219.79 454.68L220.74 454.13L221.67 453.57L222.6 452.99L223.53 452.4L224.44 451.79L257.19 429.48L256.64 425.61L256.12 420.5L255.8 415.33L255.7 410.11L255.8 404.9L256.12 399.73L256.64 394.62L257.36 389.58L258.27 384.6L259.38 379.69L260.67 374.85L262.15 370.09L263.81 365.42L265.65 360.83L267.66 356.33L269.83 351.93L272.17 347.62L274.67 343.42L277.32 339.32L280.13 335.34L283.08 331.47L286.18 327.71L289.41 324.08L292.78 320.58L296.29 317.21L299.91 313.98L303.67 310.88L307.54 307.93L311.52 305.12L315.62 302.47L319.82 299.97L324.13 297.63L328.53 295.46L333.03 293.45L337.62 291.61L342.3 289.95L347.05 288.47L351.89 287.18L356.8 286.07L361.78 285.15L366.82 284.44L371.93 283.92L377.1 283.6L382.32 283.5L387.54 283.6L392.7 283.92L397.81 284.44L402.85 285.15L407.83 286.07L412.74 287.18L417.58 288.47L422.34 289.95L427.01 291.61L431.6 293.45L436.1 295.46L440.5 297.63L444.81 299.97L446.13 300.76L570.11 216.32L532.48 151.2L152.96 326.37L150.28 327.67ZM386.77 356.03L388.96 356.25L391.12 356.56L393.25 356.95L395.36 357.43L397.43 357.98L399.47 358.62L401.47 359.33L403.44 360.11L405.37 360.98L407.25 361.91L409.1 362.91L410.9 363.98L412.66 365.12L414.36 366.32L416.02 367.59L417.63 368.91L419.19 370.3L420.69 371.74L422.13 373.24L423.52 374.8L424.85 376.41L426.11 378.07L427.31 379.78L428.45 381.53L429.52 383.33L430.52 385.18L431.46 387.06L432.32 388.99L433.1 390.96L433.81 392.96L434.45 395L435 397.07L435.48 399.18L435.87 401.31L436.18 403.48L436.4 405.66L436.54 407.88L436.58 410.11L436.54 412.35L436.4 414.57L436.18 416.75L435.87 418.92L435.48 421.05L435 423.16L434.45 425.23L433.81 427.27L433.1 429.27L432.32 431.24L431.46 433.17L430.52 435.05L429.52 436.9L428.45 438.7L427.31 440.45L426.11 442.16L424.85 443.82L423.52 445.43L422.13 446.99L420.69 448.49L419.19 449.93L417.63 451.32L416.02 452.64L414.36 453.91L412.66 455.11L410.9 456.25L409.1 457.32L407.25 458.32L405.37 459.25L403.44 460.12L401.47 460.9L399.47 461.61L397.43 462.25L395.36 462.8L393.25 463.28L391.12 463.67L388.96 463.98L386.77 464.2L384.55 464.33L382.32 464.38L380.08 464.33L377.87 464.2L375.68 463.98L373.51 463.67L371.38 463.28L369.28 462.8L367.2 462.25L365.16 461.61L363.16 460.9L361.19 460.12L359.27 459.25L357.38 458.32L355.53 457.32L353.73 456.25L351.98 455.11L350.27 453.91L348.61 452.64L347 451.32L345.45 449.93L343.95 448.49L342.5 446.99L341.11 445.43L339.79 443.82L338.52 442.16L337.32 440.45L336.18 438.7L335.11 436.9L334.11 435.05L333.18 433.17L332.32 431.24L331.53 429.27L330.82 427.27L330.18 425.23L329.63 423.16L329.15 421.05L328.76 418.92L328.45 416.75L328.23 414.57L328.1 412.35L328.05 410.11L328.1 407.88L328.23 405.66L328.45 403.48L328.76 401.31L329.15 399.18L329.63 397.07L330.18 395L330.82 392.96L331.53 390.96L332.32 388.99L333.18 387.06L334.11 385.18L335.11 383.33L336.18 381.53L337.32 379.78L338.52 378.07L339.79 376.41L341.11 374.8L342.5 373.24L343.95 371.74L345.45 370.3L347 368.91L348.61 367.59L350.27 366.32L351.98 365.12L353.73 363.98L355.53 362.91L357.38 361.91L359.27 360.98L361.19 360.11L363.16 359.33L365.16 358.62L367.2 357.98L369.28 357.43L371.38 356.95L373.51 356.56L375.68 356.25L377.87 356.03L380.08 355.9L382.32 355.85L384.55 355.9L386.77 356.03ZM81.67 432.16L81.12 432.62L80.58 433.11L80.07 433.6L79.58 434.12L79.11 434.66L78.67 435.21L78.25 435.77L77.85 436.35L77.48 436.94L77.13 437.55L76.81 438.16L76.51 438.79L76.23 439.43L75.98 440.08L75.76 440.74L75.56 441.4L75.38 442.07L75.23 442.75L75.11 443.44L75.01 444.12L74.94 444.82L74.9 445.51L74.88 446.21L74.89 446.91L74.93 447.61L74.99 448.31L75.08 449.01L75.2 449.71L75.35 450.41L75.53 451.1L75.74 451.79L75.97 452.47L76.23 453.15L76.53 453.82L76.85 454.49L77.2 455.15L77.2 455.15L77.58 455.78L77.97 456.38L78.39 456.97L78.82 457.53L79.28 458.08L79.75 458.6L80.24 459.1L80.74 459.58L81.26 460.04L81.8 460.48L82.35 460.89L82.92 461.28L83.49 461.65L84.08 462L84.69 462.33L85.3 462.63L85.92 462.91L86.55 463.16L87.19 463.39L87.84 463.6L88.5 463.78L89.16 463.94L89.83 464.08L90.5 464.19L91.18 464.27L91.86 464.33L92.54 464.36L93.23 464.37L93.92 464.35L94.61 464.31L95.29 464.24L95.98 464.14L96.67 464.02L97.35 463.87L98.03 463.69L98.71 463.49L99.38 463.25L100.05 462.99L100.71 462.71L100.88 462.63L98.27 459.47L95.74 456.15L93.33 452.74L91.06 449.23L88.92 445.63L86.91 441.94L85.04 438.16L83.32 434.31L82.28 431.7L82.25 431.72L81.67 432.16ZM379.64 392.22L378.35 392.46L377.09 392.79L375.87 393.21L374.69 393.71L373.55 394.29L372.47 394.94L371.43 395.67L370.45 396.46L369.53 397.32L368.66 398.25L367.87 399.23L367.14 400.27L366.49 401.35L365.91 402.49L365.41 403.67L364.99 404.89L364.66 406.15L364.42 407.44L364.28 408.77L364.23 410.11L364.28 411.46L364.42 412.79L364.66 414.08L364.99 415.34L365.41 416.56L365.91 417.74L366.49 418.88L367.14 419.96L367.87 421L368.66 421.98L369.53 422.91L370.45 423.77L371.43 424.56L372.47 425.29L373.55 425.94L374.69 426.52L375.87 427.02L377.09 427.44L378.35 427.77L379.64 428.01L380.97 428.15L382.32 428.2L383.67 428.15L384.99 428.01L386.28 427.77L387.54 427.44L388.76 427.02L389.94 426.52L391.08 425.94L392.17 425.29L393.2 424.56L394.18 423.77L395.11 422.91L395.97 421.98L396.76 421L397.49 419.96L398.14 418.88L398.72 417.74L399.22 416.56L399.64 415.34L399.97 414.08L400.21 412.79L400.35 411.46L400.4 410.11L400.35 408.77L400.21 407.44L399.97 406.15L399.64 404.89L399.22 403.67L398.72 402.49L398.14 401.35L397.49 400.27L396.76 399.23L395.97 398.25L395.11 397.32L394.18 396.46L393.2 395.67L392.17 394.94L391.08 394.29L389.94 393.71L388.76 393.21L387.54 392.79L386.28 392.46L384.99 392.22L383.67 392.08L382.32 392.03L380.97 392.08L379.64 392.22Z" id="a1RdyXvhAb"/></defs><g><g><g><use xlink:href="#a1REx8zJ3w" opacity="1" fill="#d45254" fill-opacity="1"/></g><g><use xlink:href="#a1RdyXvhAb" opacity="1" fill="#ffffff" fill-opacity="1"/></g></g></g></svg>