<?xml version="1.0" encoding="UTF-8"?>
<!-- Generator: Adobe Illustrator 16.0.3, SVG Export Plug-In . SVG Version: 6.00 Build 0)  -->
<!DOCTYPE svg PUBLIC "-//W3C//DTD SVG 1.1//EN" "http://www.w3.org/Graphics/SVG/1.1/DTD/svg11.dtd">
<svg version="1.1" id="Ebene_1" xmlns="http://www.w3.org/2000/svg" xmlns:xlink="http://www.w3.org/1999/xlink" x="0px" y="0px" width="612px" height="612px" viewBox="0 90 612 612" enable-background="new 0 90 612 612" xml:space="preserve">
<path fill="#FFFFFF" d="M501.842,202.302c-52.021-52.632-121.788-82.008-195.839-82.008c-72.828,0-141.372,28.152-193.393,79.561  c-52.632,51.407-81.396,120.563-82.008,194.004c-0.612,73.439,27.54,143.208,79.561,195.228  c8.567,8.568,17.136,15.912,26.928,23.257V464.238c0-10.404,8.567-18.36,18.359-18.36l0,0c10.404,0,18.36,8.568,18.36,18.972  v172.585c20.196,11.016,41.616,19.584,64.26,25.704V353.466c0-10.403,8.568-18.359,18.36-18.359l0,0  c10.404,0,18.36,8.567,18.36,18.972V669.87c10.403,1.225,20.808,1.836,31.212,1.836c10.403,0,20.807-0.611,31.211-1.836V295.326  c0-10.404,9.18-18.36,19.584-18.36l0,0c10.403,0,18.359,8.568,18.359,18.36v367.2c22.645-6.12,44.064-14.688,64.261-25.704V395.694  c0-10.404,8.567-18.36,18.359-18.36s18.36,8.568,18.36,18.36V611.73c7.956-6.12,15.912-12.853,23.256-20.196  C607.718,485.046,608.942,310.014,501.842,202.302z"/>
</svg>