<svg width="256" height="256" viewBox="0 0 256 256" fill="none" xmlns="http://www.w3.org/2000/svg">
<path d="M130.354 150.2H165.774C162.914 160.98 156.314 166.7 155.214 167.58C151.914 170.44 144.214 175.5 129.694 175.5C118.474 175.5 108.574 172.86 99.9938 164.06C93.8338 157.9 87.6738 147.12 87.6738 130.4C87.6738 116.76 92.0738 104.22 100.214 95.64C107.254 88.16 117.154 83.76 130.574 83.76C138.934 83.76 146.414 85.96 153.014 90.8C158.734 94.98 163.134 100.92 165.994 106.64L196.574 90.14C191.294 80.9 182.714 70.56 172.814 63.96C159.174 54.94 143.774 52.96 131.674 52.96C114.294 52.96 92.0738 55.6 74.0338 74.3C61.7138 86.84 52.9138 105.98 52.9138 129.96C52.9138 159.22 65.8938 177.04 74.4738 185.84C91.6338 203.44 110.554 206.3 128.154 206.3C145.534 206.3 164.234 203.22 180.514 186.28C196.794 169.34 203.174 142.28 203.174 124.46V122.92H130.354V150.2Z" fill="url(#paint0_linear_180_2)"/>
<defs>
<linearGradient id="paint0_linear_180_2" x1="218.5" y1="46.5" x2="33" y2="213" gradientUnits="userSpaceOnUse">
<stop stop-color="#AC54F0"/>
<stop offset="1" stop-color="#14FED4"/>
</linearGradient>
</defs>
</svg>
